<svg id="Capa_1" data-name="Capa 1" xmlns="http://www.w3.org/2000/svg" viewBox="0 0 609.41 802.61"><defs><style>.cls-1{fill:#000603;}.cls-1,.cls-2,.cls-3{fill-rule:evenodd;}.cls-2{fill:#951418;}.cls-3{fill:#e94945;}</style></defs><path class="cls-1" d="M693.85,766.94,670.36,772a223.53,223.53,0,0,1-103-4.27c-66.08-19.43-125.81-58.23-172.47-112-33.59-41.37-54.17-93-58.8-147.68l-1-6.7V499a340,340,0,0,1,34.39-182.06l12.16-22c32-66.78,84.43-119.78,148.47-150.1h.11a15.12,15.12,0,0,0,6.07-2.7,2.34,2.34,0,0,1,.61-.31,5.4,5.4,0,0,1,.9-.23c.62-.1,1.23-.22,1.85-.36l-18.86-40.35a529.13,529.13,0,0,0-57.06,36.56c-65.38,40.37-116.81,102.39-146.61,176.77a383.42,383.42,0,0,0-14.94,250.7C334.4,682.36,420.64,773.84,530.51,807.15c3.7,1.11,7.43,2.17,11.18,3.14C645.8,841,757.33,811.54,836.22,732.45a273.72,273.72,0,0,0,41.84-62.83c29.6-66.78,24.73-145.25-12.83-207.26s-102.46-98.68-171.38-96.84Z" transform="translate(-287.86 -19.63)"/><path class="cls-2" d="M693.85,764.8C647.66,749.73,641,747.7,608,729.49c-30.75-11-62.3-10.64-101-32.9-28.31-16.29-55.8-38.67-74.18-65.28C387.75,566,370,481.57,387.61,399.31,410.1,305,464.61,223,540.46,169.38c2.56-1.94,5.14-3.87,7.75-5.76l-8-19.32q-25.65,14.59-50,31.63l-.15.12a25.52,25.52,0,0,1-3.75,2.79c-.26.16-.52.34-.78.52a4.5,4.5,0,0,0-.52.41c-.57.53-1.17,1-1.77,1.54-1.38,1.18-2.78,2.31-4.2,3.45l-1.16.71c-62.73,53.68-107.36,127.93-127,211.42a332.2,332.2,0,0,0-6.08,67.26c-1.14,60,14.26,119.1,44.27,169.79,30.75,58.23,92.28,105.45,142.5,117.67,52.29,12.73,83.53,19.84,140.37,19.18a73,73,0,0,0,21.94-4.15Z" transform="translate(-287.86 -19.63)"/><path class="cls-1" d="M520.07,45.66c-1-.51-2-1-3-1.4a19.23,19.23,0,0,1-3.87-2.65c-3.83-2.85-7.74-5.52-11.78-8-1.83-1.45-3.67-2.91-5.48-4.41a109,109,0,0,1-8.9-7.59,11.22,11.22,0,0,0-2.49-1.73,3.65,3.65,0,0,0-.73-.23,1.29,1.29,0,0,0-.48,0,1.35,1.35,0,0,0-.8.41.93.93,0,0,0-.29.63,2.54,2.54,0,0,0,0,.39,4.7,4.7,0,0,0,.17.83,44.29,44.29,0,0,0,6.24,12.79c.37.69.75,1.37,1.16,2C504.24,55.15,526,64.91,548.35,63a4.51,4.51,0,0,0,2.84-1,1.85,1.85,0,0,0,.57-.88.85.85,0,0,0-.14-.74L551.3,60a11.7,11.7,0,0,0-5-2.5,94.61,94.61,0,0,0-9.84-3.15,42.86,42.86,0,0,1-7.37-3.5A88.7,88.7,0,0,1,520.07,45.66Z" transform="translate(-287.86 -19.63)"/><path class="cls-2" d="M693.85,766.56V365.9a189.78,189.78,0,0,0-54.74,8.18C556.37,396.15,497.72,475,496.05,566.34a201.88,201.88,0,0,0,31.36,108.08C565.85,732.09,627.76,766.38,693.85,766.56Z" transform="translate(-287.86 -19.63)"/><path class="cls-1" d="M548.79,166.29a16.55,16.55,0,0,1,3.4,4.36,23.61,23.61,0,0,0,3,3.69,19.91,19.91,0,0,1,2.37,3.18,21.51,21.51,0,0,0,2.42,3.12,19.52,19.52,0,0,1,1.83,2.59,23.61,23.61,0,0,0,3,3.69,18.28,18.28,0,0,1,2.35,3.18,21.27,21.27,0,0,0,4,4.52.78.78,0,0,0,.67.17.86.86,0,0,0,.57-.39l1.08-2a20.17,20.17,0,0,1,2.21-3.27,22.83,22.83,0,0,0,2-3.54,10.48,10.48,0,0,1,3-3.64,12.8,12.8,0,0,0,3.72-4.72l.18-.42a2.21,2.21,0,0,1,.56-.66l.58-.41,2.35-1.9a8.41,8.41,0,0,1,2-1.23,19.57,19.57,0,0,0,4.12-2.47,2.25,2.25,0,0,1,.61-.41,3.43,3.43,0,0,1,.76-.33,8.81,8.81,0,0,0,3-1.42c.67-.44,1.33-.86,2-1.27a4.33,4.33,0,0,1,1.47-.57c1.81-.32,3.61-.68,5.39-1.11a42.12,42.12,0,0,1,12.33-.25l1.82.27c1.27.48,2.53,1,3.76,1.61a3.71,3.71,0,0,0,.46.19,8.46,8.46,0,0,1,1.06.49,4.41,4.41,0,0,1,1.17.93l.43.67,2.75,3.91a9,9,0,0,1,1.33,6.59c-.3,1.6-.58,3.23-.81,4.84a1.85,1.85,0,0,1-.17.5,4.86,4.86,0,0,1-.54.87,45,45,0,0,1-3.24,4.5,29.74,29.74,0,0,0-2.44,4.1L625,195a2.16,2.16,0,0,0,.27,1.49,2.79,2.79,0,0,0,.3.38c.25.27.49.51.75.75a4,4,0,0,0,1.32.75,5.89,5.89,0,0,0,1.86.3l6.35.39c2.47-.15,5-.21,7.45-.2a11.18,11.18,0,0,0,3-.26c1-.39,2.06-.82,3.06-1.3.76-.35,1.53-.69,2.3-1,.24-.1.51-.23.75-.36a6.71,6.71,0,0,0,.68-.4l2-1.23.69-.45a1.63,1.63,0,0,1,1.26-.13,1.78,1.78,0,0,1,1,.79,3,3,0,0,1,.48,1.55,9.76,9.76,0,0,1-.75,3.41c-.14.38-.28.76-.44,1.14l-.18.44a3.91,3.91,0,0,1-.89,1.17,4.69,4.69,0,0,1-1.4.89,11.85,11.85,0,0,0-3.42,2.07c-.83.65-1.69,1.25-2.57,1.81a16.64,16.64,0,0,0-3.81,3.91l-.84,1.3a3.07,3.07,0,0,0-.26,1.37,1.32,1.32,0,0,0,.32.89l.34.24a2.49,2.49,0,0,0,1.18.16,14.31,14.31,0,0,0,2.41-.57,38,38,0,0,1,6.8-1.78,3,3,0,0,0,1.49-.74,1.56,1.56,0,0,0,.37-.4,2.4,2.4,0,0,1,1.08-.8l.63-.23c.9-.45,1.81-.91,2.69-1.44q.29-.13.57-.24c.3-.13.62-.23.93-.33l1.72-.53.48-.21c.34-.17.66-.35,1-.55a34.59,34.59,0,0,1,7.29-3.54l.83-.28a6.34,6.34,0,0,0,1.4-.82,36.94,36.94,0,0,0,13-12.37c.78-1.07,1.56-2.12,2.38-3.14a5.41,5.41,0,0,0,.64-1.12,5.16,5.16,0,0,0,.33-1.34,133.74,133.74,0,0,0,.29-14.44,4,4,0,0,0-.28-1.32,1.33,1.33,0,0,0-.63-.71,2.59,2.59,0,0,0-1.23-.19,9.32,9.32,0,0,0-4,1.28,31.39,31.39,0,0,1-7.37,3.46l-1.69.56a5.06,5.06,0,0,1-1.32.41,5.33,5.33,0,0,1-1.38.11,24,24,0,0,0-6.7.62,5.15,5.15,0,0,1-3.15-.28c-.76-.28-1.53-.58-2.3-.89l-.8-.3c-.92-.2-1.87-.36-2.81-.49l-.86-.2c-1.28-.5-2.53-1-3.78-1.6a39.4,39.4,0,0,1-4.51-2,9.61,9.61,0,0,1-2.41-1.94,1.6,1.6,0,0,0-.46-.36c-.56-.33-1.11-.61-1.68-.88-1.26-.51-2.5-1.07-3.71-1.7a9.13,9.13,0,0,1-3.15-3.38c-.37-.65-.75-1.29-1.12-1.95a1.45,1.45,0,0,1-.16-1,.48.48,0,0,1,.4-.41h.51a3.27,3.27,0,0,1,1.1.34c.94.47,1.91.89,2.89,1.29a13.73,13.73,0,0,0,2.84.49,31.11,31.11,0,0,1,5.86,1.42,3.66,3.66,0,0,0,.81.18,2.43,2.43,0,0,0,.66,0,40.75,40.75,0,0,1,5.51-.62,13.51,13.51,0,0,0,2.83-.48c1.26-.54,2.5-1.09,3.75-1.65l3.86-1.54a24.56,24.56,0,0,0,2.66-1.77c.89-.59,1.8-1.14,2.72-1.63,1.32-.87,2.58-1.81,3.81-2.8a21.8,21.8,0,0,1,6.93-2.81,9,9,0,0,0,1-.3,4.09,4.09,0,0,0,.47-.23,7.7,7.7,0,0,1,1.29-.63,2.63,2.63,0,0,1,.83-.14,15.6,15.6,0,0,0,3.41-.27,9,9,0,0,1,1.55-.18,2.14,2.14,0,0,1,.65.16,2.18,2.18,0,0,1,.64.45l1.63,1.6a3.67,3.67,0,0,0,.52.44,7.4,7.4,0,0,0,.72.53,13.44,13.44,0,0,1,3,2.47c.71.77,1.43,1.53,2.17,2.26a6.38,6.38,0,0,0,3.3,1.85,2.14,2.14,0,0,0,1.12-.09,1,1,0,0,0,.55-.6,2.65,2.65,0,0,0-.1-1.92l-.42-.71-1.55-2.64-.35-.62a5.62,5.62,0,0,1-.32-1.22V147a.71.71,0,0,1,.43-.51l.45-.08a4.8,4.8,0,0,1,2,.53,12.72,12.72,0,0,1,4.29,3.23,18.53,18.53,0,0,1,3.57,4.13l.77,1.47a8.85,8.85,0,0,0,4.5,3.92l.58.17a1.07,1.07,0,0,0,1.16-.63,3.78,3.78,0,0,0,.29-1.28,13.85,13.85,0,0,0-1.65-7.41l-.84-1.39-.58-.51a18.73,18.73,0,0,1-4.21-4.58,16.1,16.1,0,0,0-5.78-5.28c-1.82-1.06-3.62-2.2-5.37-3.36a11.39,11.39,0,0,0-5.87-1.73,25.68,25.68,0,0,0-8.43.46,139.47,139.47,0,0,0-28.06,13.72c-1.07.46-2.14,1-3.18,1.54a11.24,11.24,0,0,1-4.08,1.24,17.26,17.26,0,0,0-3.71.64,19.54,19.54,0,0,1-6.73.43,11.3,11.3,0,0,1-1.71-.44,24.07,24.07,0,0,0-5.78-.94,10.77,10.77,0,0,1-4-1.19,4.25,4.25,0,0,1-1.2-.9l-.46-.65a11.61,11.61,0,0,0-2.72-2.83,43.43,43.43,0,0,1-4.46-4.33,10,10,0,0,0-6.46-3.35,9.24,9.24,0,0,1-1.72-.44,2.19,2.19,0,0,1-.73-.41c-.39-.33-.75-.66-1.11-1l-.52-.6a1.61,1.61,0,0,1,0-1.87l.55-.5c.78-.69,1.58-1.35,2.38-2a12.74,12.74,0,0,1,5.42-2.19,8.48,8.48,0,0,0,1.31-.15q33.51-7.68,67.35-13.6c1.23-.07,2.46-.12,3.69-.13h1.89a2.43,2.43,0,0,0,1.12-.27,2.24,2.24,0,0,0,.79-.74,2.58,2.58,0,0,0,.22-.44,4.58,4.58,0,0,1,.47-.76,2.06,2.06,0,0,1,1.19-.74,7.63,7.63,0,0,1,1.91-.08,8.07,8.07,0,0,1,2.68.26,19.42,19.42,0,0,1,6.89,3.94,8.26,8.26,0,0,0,.91.64,2.34,2.34,0,0,0,.43.26,17.07,17.07,0,0,0,3.21,1l.81.23a2.78,2.78,0,0,0,1.65-.33l.55-.53a4.9,4.9,0,0,0,1-1.3,6.08,6.08,0,0,0,.59-1.71l.51-2a37.57,37.57,0,0,0-5.64-29.53,32.49,32.49,0,0,0-24.78-14.21c-.56-.1-1.15-.21-1.71-.34l-.94-.2a3.07,3.07,0,0,0-2.91,1.5l-2.85,4.94a15.55,15.55,0,0,1-4.79,5.09,4,4,0,0,1-1.48.6l-1.25.22a258.57,258.57,0,0,1-36.25,2.4c-.51,0-1-.08-1.52-.13a11.57,11.57,0,0,1-5.11-2.54c-.94-.89-1.91-1.76-2.87-2.63a23.1,23.1,0,0,0-8-5.13,6.28,6.28,0,0,1-.83-.39c-.2-.1-.4-.22-.59-.34-1.07-.78-2.18-1.5-3.3-2.16A25.3,25.3,0,0,0,610.41,67a32.1,32.1,0,0,1-3.9-1.46l-.8-.32a7,7,0,0,0-1.94-.27,28.37,28.37,0,0,1-6.55-.87,8.42,8.42,0,0,0-2-.18c-2.81-.17-5.64-.22-8.45-.11L584.7,64l-.42.2a122.58,122.58,0,0,1-61.55.51l-.86,0-.74-.18a282.84,282.84,0,0,1-36.69-12,174.52,174.52,0,0,1-33.1-17,2.93,2.93,0,0,0-2,0,1,1,0,0,0-.42.4,1.31,1.31,0,0,0-.15.61,6.34,6.34,0,0,0,.29,1.36,11.51,11.51,0,0,0,1.63,3.71,22.16,22.16,0,0,1,1.4,2.16,141,141,0,0,0,62,48.79,23.59,23.59,0,0,1,3.76,2.34l.63.48a.9.9,0,0,1,.17.26,2.16,2.16,0,0,1,.1.44,5.33,5.33,0,0,1-.59,2.88A528.12,528.12,0,0,1,548.79,166.29Z" transform="translate(-287.86 -19.63)"/><path class="cls-3" d="M672.85,579.08a10.29,10.29,0,0,0,1.57-.13,1.28,1.28,0,0,0,1.08-1.15,14.25,14.25,0,0,0,.13-2.77V452.93a9.5,9.5,0,0,0-.12-1.68,1.32,1.32,0,0,0-1.08-1.17,12.37,12.37,0,0,0-2.58-.13l-59.54.07a6.82,6.82,0,0,0-1.91.26,41.1,41.1,0,0,0-24.27,15.12,44.42,44.42,0,0,0-9.61,25.12l.08,50.21a45.66,45.66,0,0,0,7.62,20.4,43.88,43.88,0,0,0,15.77,14,35.72,35.72,0,0,0,16.49,4h33.07Zm-26-95.28v60.36a19.21,19.21,0,0,1-.07,2.84l-.11.52a.85.85,0,0,1-.49.51l-.46.13c-.89.06-1.78.08-2.68.08q-12.18.09-24.35-.07a9.67,9.67,0,0,1-3.55-.77,16.5,16.5,0,0,1-4.84-2.8,9.37,9.37,0,0,1-.88-.79,6.51,6.51,0,0,1-.72-.94c-.44-.66-.87-1.35-1.29-2a16.43,16.43,0,0,1-1.58-4,8.54,8.54,0,0,1-.46-2.92q-.18-19.37,0-38.73a7.93,7.93,0,0,1,.22-2.06l.5-1.73a18.53,18.53,0,0,1,2.61-5.2c.2-.3.4-.61.63-.89a3.89,3.89,0,0,1,.34-.36c.83-.64,1.67-1.26,2.53-1.83a14,14,0,0,1,3.75-1.7,7.32,7.32,0,0,1,2.74-.51l24.35-.08a14.12,14.12,0,0,1,2.6.12l.47.13a.82.82,0,0,1,.53.54l.12.51Z" transform="translate(-287.86 -19.63)"/><path class="cls-3" d="M763.65,649.5a4,4,0,0,1,.21-1.28,1.11,1.11,0,0,1,.59-.63,4,4,0,0,1,1.18-.23l22-.13a47.77,47.77,0,0,0,24.72-11.08,20.6,20.6,0,0,0,5.85-6.27c1.09-1.52,2.16-3,3.19-4.58a34.19,34.19,0,0,0,4.35-9,39.42,39.42,0,0,0,1.94-5.89q.3-1.36.66-2.7a28.16,28.16,0,0,0,.29-5.35V555.64a11.63,11.63,0,0,0-.13-1.67,2.27,2.27,0,0,0-.21-.62.78.78,0,0,0-.29-.28l-.45-.12a25.17,25.17,0,0,0-3.58-.16H735.65a10,10,0,0,0-1.55.13,1.62,1.62,0,0,0-.59.25.61.61,0,0,0-.26.31l-.11.46a30.82,30.82,0,0,0-.15,3.84v123.3a9.21,9.21,0,0,0,.12,1.66,1.75,1.75,0,0,0,.22.63.78.78,0,0,0,.29.28l.45.11a23.65,23.65,0,0,0,3.57.17h22.27a16.76,16.76,0,0,0,2.65-.15,1.12,1.12,0,0,0,.87-.94,7.25,7.25,0,0,0,.12-1.74v-3.29Zm32.59-46.65L795,604.92a16.76,16.76,0,0,1-10.56,8.23,27.37,27.37,0,0,0-4.39,1,8.43,8.43,0,0,1-2,.25q-6.22.17-12.44,0a3.69,3.69,0,0,1-1.18-.23,1.11,1.11,0,0,1-.59-.63,4,4,0,0,1-.21-1.28v-24.5a4.28,4.28,0,0,1,.2-1.28,1.16,1.16,0,0,1,.6-.63,3.22,3.22,0,0,1,1.18-.23h30.33a3.22,3.22,0,0,1,1.18.23,1.11,1.11,0,0,1,.59.63,4,4,0,0,1,.21,1.28c0,2.18.06,4.35,0,6.52a19.73,19.73,0,0,1-1.67,8.57Z" transform="translate(-287.86 -19.63)"/></svg>